<svg width="64" height="58" fill="none" opacity=".1" xmlns="http://www.w3.org/2000/svg"><path d="M38.289 46.01c-1.6.671-2.272 2.582-1.55 4.13l2.53 5.318a3.087 3.087 0 004.028 1.497c4.388-1.859 8.157-4.285 11.152-7.228 3.665-3.459 6.144-7.434 7.486-11.823C63.277 33.464 64 27.424 64 19.731V3.881A3.107 3.107 0 0060.902.783h-20.29a3.107 3.107 0 00-3.098 3.098v20.29a3.106 3.106 0 003.098 3.098h9.706c-.103 5.215-1.342 9.396-3.614 12.546-1.858 2.529-4.646 4.594-8.415 6.195zm-36.452 0c-1.6.67-2.271 2.58-1.549 4.13l2.53 5.265a3.087 3.087 0 004.027 1.498c4.337-1.86 8.055-4.286 11.1-7.177 3.667-3.51 6.196-7.486 7.539-11.875 1.342-4.336 2.013-10.377 2.013-18.121V3.88A3.107 3.107 0 0024.399.781H4.11a3.107 3.107 0 00-3.1 3.098v20.29a3.106 3.106 0 003.098 3.098h9.758c-.104 5.216-1.343 9.397-3.614 12.547-1.859 2.53-4.647 4.594-8.416 6.195z" fill="#2E6EFF"/></svg>